REM DIRINDEX 1\2\4,1\2\5,1\3\6,1\3\7,1\3\8
REM DIRNAME folder01,folder02,folder03,folder04,folder05,folder06,folder07,folder08
TITLE ""
FILE "LEVEL5-017-midashigo.mp3" MP3
  TRACK 01 AUDIO
    TITLE "0:"
    INDEX 01 00:00:00
  TRACK 02 AUDIO
    TITLE "6:cjc092_4006"
    INDEX 01 00:00:07
  TRACK 03 AUDIO
    TITLE "0:"
    INDEX 01 00:03:51
  TRACK 04 AUDIO
    TITLE "7:cjc092_4007"
    INDEX 01 00:04:25
  TRACK 05 AUDIO
    TITLE "8:cjc092_4008"
    INDEX 01 00:05:50
  TRACK 06 AUDIO
    TITLE "0:"
    INDEX 01 00:07:33
  TRACK 07 AUDIO
    TITLE "7:cjc092_4009"
    INDEX 01 00:07:66
  TRACK 08 AUDIO
    TITLE "8:cjc092_4010"
    INDEX 01 00:09:08
  TRACK 09 AUDIO
    TITLE "0:"
    INDEX 01 00:11:52
  TRACK 10 AUDIO
    TITLE "7:cjc092_4011"
    INDEX 01 00:12:09
  TRACK 11 AUDIO
    TITLE "8:cjc092_4012"
    INDEX 01 00:13:28
  TRACK 12 AUDIO
    TITLE "0:"
    INDEX 01 00:15:15
  TRACK 13 AUDIO
    TITLE "7:cjc092_4013"
    INDEX 01 00:15:48
  TRACK 14 AUDIO
    TITLE "8:cjc092_4014"
    INDEX 01 00:17:16
  TRACK 15 AUDIO
    TITLE "0:"
    INDEX 01 00:18:58
  TRACK 16 AUDIO
    TITLE "7:cjc092_4015"
    INDEX 01 00:19:16
  TRACK 17 AUDIO
    TITLE "8:cjc092_4016"
    INDEX 01 00:20:28
  TRACK 18 AUDIO
    TITLE "0:"
    INDEX 01 00:23:24
  TRACK 19 AUDIO
    TITLE "7:cjc092_4017"
    INDEX 01 00:23:57
  TRACK 20 AUDIO
    TITLE "8:cjc092_4018"
    INDEX 01 00:25:01
  TRACK 21 AUDIO
    TITLE "0:"
    INDEX 01 00:27:08
  TRACK 22 AUDIO
    TITLE "7:cjc092_4019"
    INDEX 01 00:27:41
  TRACK 23 AUDIO
    TITLE "8:cjc092_4020"
    INDEX 01 00:28:64
  TRACK 24 AUDIO
    TITLE "0:"
    INDEX 01 00:30:10
  TRACK 25 AUDIO
    TITLE "7:cjc092_4021"
    INDEX 01 00:30:46
  TRACK 26 AUDIO
    TITLE "8:cjc092_4022"
    INDEX 01 00:31:63
  TRACK 27 AUDIO
    TITLE "0:"
    INDEX 01 00:33:54
  TRACK 28 AUDIO
    TITLE "7:cjc092_4023"
    INDEX 01 00:34:14
  TRACK 29 AUDIO
    TITLE "8:cjc092_4024"
    INDEX 01 00:35:33
  TRACK 30 AUDIO
    TITLE "0:"
    INDEX 01 00:37:54
  TRACK 31 AUDIO
    TITLE "7:cjc092_4025"
    INDEX 01 00:38:08
  TRACK 32 AUDIO
    TITLE "8:cjc092_4026"
    INDEX 01 00:39:39
  TRACK 33 AUDIO
    TITLE "0:"
    INDEX 01 00:43:23
  TRACK 34 AUDIO
    TITLE "7:cjc092_4027"
    INDEX 01 00:43:56
  TRACK 35 AUDIO
    TITLE "8:cjc092_4028"
    INDEX 01 00:45:16
  TRACK 36 AUDIO
    TITLE "0:"
    INDEX 01 00:46:29
  TRACK 37 AUDIO
    TITLE "7:cjc092_4029"
    INDEX 01 00:46:66
  TRACK 38 AUDIO
    TITLE "8:cjc092_4030"
    INDEX 01 00:48:18
  TRACK 39 AUDIO
    TITLE "0:"
    INDEX 01 00:50:42
  TRACK 40 AUDIO
    TITLE "7:cjc092_4031"
    INDEX 01 00:50:74
  TRACK 41 AUDIO
    TITLE "8:cjc092_4032"
    INDEX 01 00:52:39
  TRACK 42 AUDIO
    TITLE "0:"
    INDEX 01 00:53:51
  TRACK 43 AUDIO
    TITLE "7:cjc092_4033"
    INDEX 01 00:54:11
  TRACK 44 AUDIO
    TITLE "8:cjc092_4034"
    INDEX 01 00:55:34
  TRACK 45 AUDIO
    TITLE "0:"
    INDEX 01 00:56:53
  TRACK 46 AUDIO
    TITLE "7:cjc092_4035"
    INDEX 01 00:57:13
  TRACK 47 AUDIO
    TITLE "8:cjc092_4036"
    INDEX 01 00:58:46
  TRACK 48 AUDIO
    TITLE "0:"
    INDEX 01 01:00:45
  TRACK 49 AUDIO
    TITLE "7:cjc092_4037"
    INDEX 01 01:01:01
  TRACK 50 AUDIO
    TITLE "8:cjc092_4038"
    INDEX 01 01:02:22
  TRACK 51 AUDIO
    TITLE "0:"
    INDEX 01 01:05:62
  TRACK 52 AUDIO
    TITLE "7:cjc092_4039"
    INDEX 01 01:06:24
  TRACK 53 AUDIO
    TITLE "8:cjc092_4040"
    INDEX 01 01:07:53
  TRACK 54 AUDIO
    TITLE "0:"
    INDEX 01 01:10:30
  TRACK 55 AUDIO
    TITLE "7:cjc092_4041"
    INDEX 01 01:10:65
  TRACK 56 AUDIO
    TITLE "8:cjc092_4042"
    INDEX 01 01:12:21
  TRACK 57 AUDIO
    TITLE "0:"
    INDEX 01 01:14:63
  TRACK 58 AUDIO
    TITLE "7:cjc092_4043"
    INDEX 01 01:15:11
  TRACK 59 AUDIO
    TITLE "8:cjc092_4044"
    INDEX 01 01:16:28
  TRACK 60 AUDIO
    TITLE "0:"
    INDEX 01 01:18:35
  TRACK 61 AUDIO
    TITLE "7:cjc092_4045"
    INDEX 01 01:18:64
  TRACK 62 AUDIO
    TITLE "8:cjc092_4046"
    INDEX 01 01:20:02
  TRACK 63 AUDIO
    TITLE "0:"
    INDEX 01 01:22:44
